HIERARCHY
ROOT Hips
{
	OFFSET 0.000000 0.000000 0.000000
	CHANNELS 6 Xposition Yposition Zposition Zrotation Yrotation Xrotation 
	JOINT LHipJoint
	{
		OFFSET 0.000000 0.000000 0.000000
		CHANNELS 3 Zrotation Yrotation Xrotation
		JOINT LeftUpLeg
		{
			OFFSET 1.363060 -1.794630 0.839290
			CHANNELS 3 Zrotation Yrotation Xrotation
			JOINT LeftLeg
			{
				OFFSET 2.448110 -6.726130 0.000000
				CHANNELS 3 Zrotation Yrotation Xrotation
				JOINT LeftFoot
				{
					OFFSET 2.562200 -7.039590 0.000000
					CHANNELS 3 Zrotation Yrotation Xrotation
					JOINT LeftToeBase
					{
						OFFSET 0.157640 -0.433110 2.322550
						CHANNELS 3 Zrotation Yrotation Xrotation
						End Site
						{
							OFFSET 0.000000 0.000000 0.000000
						}
					}
				}
			}
		}
	}
	JOINT RHipJoint
	{
		OFFSET 0.000000 0.000000 0.000000
		CHANNELS 3 Zrotation Yrotation Xrotation
		JOINT RightUpLeg
		{
			OFFSET -1.305520 -1.794630 0.839290
			CHANNELS 3 Zrotation Yrotation Xrotation
			JOINT RightLeg
			{
				OFFSET -2.542530 -6.985550 0.000000
				CHANNELS 3 Zrotation Yrotation Xrotation
				JOINT RightFoot
				{
					OFFSET -2.568260 -7.056230 0.000000
					CHANNELS 3 Zrotation Yrotation Xrotation
					JOINT RightToeBase
					{
						OFFSET -0.164730 -0.452590 2.363150
						CHANNELS 3 Zrotation Yrotation Xrotation
						End Site
						{
							OFFSET 0.000000 0.000000 0.000000
						}
					}
				}
			}
		}
	}
	JOINT LowerBack
	{
		OFFSET 0.000000 0.000000 0.000000
		CHANNELS 3 Zrotation Yrotation Xrotation
		JOINT Spine
		{
			OFFSET 0.028270 2.035590 -0.193380
			CHANNELS 3 Zrotation Yrotation Xrotation
			JOINT Spine1
			{
				OFFSET 0.056720 2.048850 -0.042750
				CHANNELS 3 Zrotation Yrotation Xrotation
				JOINT Neck
				{
					OFFSET 0.000000 0.000000 0.000000
					CHANNELS 3 Zrotation Yrotation Xrotation
					JOINT Neck1
					{
						OFFSET -0.054170 1.746240 0.172020
						CHANNELS 3 Zrotation Yrotation Xrotation
						JOINT Head
						{
							OFFSET 0.104070 1.761360 -0.123970
							CHANNELS 3 Zrotation Yrotation Xrotation
							End Site
							{
								OFFSET 0.000000 0.000000 0.000000
							}
						}
					}
				}
				JOINT LeftShoulder
				{
					OFFSET 0.000000 0.000000 0.000000
					CHANNELS 3 Zrotation Yrotation Xrotation
					JOINT LeftArm
					{
						OFFSET 3.362410 1.200890 -0.311210
						CHANNELS 3 Zrotation Yrotation Xrotation
						JOINT LeftForeArm
						{
							OFFSET 4.983000 -0.000000 -0.000000
							CHANNELS 3 Zrotation Yrotation Xrotation
							JOINT LeftHand
							{
								OFFSET 3.483560 -0.000000 -0.000000
								CHANNELS 3 Zrotation Yrotation Xrotation
								JOINT LeftFingerBase
								{
									OFFSET 0.000000 0.000000 0.000000
									CHANNELS 3 Zrotation Yrotation Xrotation
									JOINT LeftHandIndex1
									{
										OFFSET 0.715260 -0.000000 -0.000000
										CHANNELS 3 Zrotation Yrotation Xrotation
										End Site
										{
											OFFSET 0.000000 0.000000 0.000000
										}
									}
								}
								JOINT LThumb
								{
									OFFSET 0.000000 0.000000 0.000000
									CHANNELS 3 Zrotation Yrotation Xrotation
									End Site
									{
										OFFSET 0.000000 0.000000 0.000000
									}
								}
							}
						}
					}
				}
				JOINT RightShoulder
				{
					OFFSET 0.000000 0.000000 0.000000
					CHANNELS 3 Zrotation Yrotation Xrotation
					JOINT RightArm
					{
						OFFSET -3.136600 1.374050 -0.404650
						CHANNELS 3 Zrotation Yrotation Xrotation
						JOINT RightForeArm
						{
							OFFSET -5.241900 -0.000000 -0.000000
							CHANNELS 3 Zrotation Yrotation Xrotation
							JOINT RightHand
							{
								OFFSET -3.444170 -0.000000 -0.000000
								CHANNELS 3 Zrotation Yrotation Xrotation
								JOINT RightFingerBase
								{
									OFFSET 0.000000 0.000000 0.000000
									CHANNELS 3 Zrotation Yrotation Xrotation
									JOINT RightHandIndex1
									{
										OFFSET -0.622530 -0.000000 -0.000000
										CHANNELS 3 Zrotation Yrotation Xrotation
										End Site
										{
											OFFSET 0.000000 0.000000 0.000000
										}
									}
								}
								JOINT RThumb
								{
									OFFSET 0.000000 0.000000 0.000000
									CHANNELS 3 Zrotation Yrotation Xrotation
									End Site
									{
										OFFSET 0.000000 0.000000 0.000000
									}
								}
							}
						}
					}
				}
			}
		}
	}
}
MOTION
Frames: 10
Frame Time: 0.008333
-0.466975 16.057225 -1.279461 -113.143836 85.810510 -94.040008 -10.189051 1.046886 2.746721 -22.320598 -8.684077 -29.132589 -2.061298 1.011653 40.812337 3.288044 9.090217 -31.332320 175.335900 -0.000000 -1.075899 10.500862 -2.228300 -0.067624 -0.451028 -1.160765 -26.631770 -1.742985 -4.267128 71.036446 -2.529526 -14.074397 -2.502260 -1.361001 -0.000000 -48.797600 0.287826 0.618851 -2.802156 0.111164 0.611144 -4.286632 -2.301428 0.581911 -4.143031 0.518664 -0.698459 -6.216764 1.306259 0.071897 0.462721 0.000000 0.000000 0.000000 8.121323 -8.983974 7.456296 80.035332 -20.137994 51.760953 -0.992823 -69.814110 -0.202940 8.452548 70.195067 6.216429 -0.288981 -1.553274 -0.000000 0.000000 0.000000 0.000000 0.000000 0.000000 0.000000 -14.347937 5.109892 -4.444161 -3.743613 73.951397 -75.975222 -3.406761 32.378584 -0.163708 -17.407911 10.514612 -1.767073 0.338329 -0.760871 -0.000000 0.000000 0.000000 0.000000 0.000000 0.000000 0.000000 
-0.229061 16.157862 -1.363359 -115.399622 85.213142 -96.259787 -10.431439 1.051411 2.709327 -21.568297 -8.414535 -27.159916 -2.028216 0.831606 38.638984 3.097092 8.836356 -29.850802 175.727600 0.000000 -0.591900 10.235611 -2.109330 0.109021 0.312145 -0.063761 -27.782224 -1.662389 -4.176549 70.148877 -2.548960 -14.120831 -2.589232 -1.375100 0.000000 -48.938600 0.922804 0.563783 -2.844286 0.225326 0.506459 -4.278180 -2.363003 0.487396 -4.130835 0.773212 -1.044038 -6.029337 1.397492 0.074946 0.514452 0.000000 0.000000 0.000000 7.898463 -9.439768 7.375028 78.910314 -19.737253 51.173331 -0.898975 -71.278816 -0.171124 -3.964801 73.261662 -3.023496 -0.147185 -1.558748 -0.000000 0.000000 0.000000 0.000000 0.000000 0.000000 0.000000 -14.487338 4.583070 -4.579975 -2.421515 73.644631 -73.395217 -3.544814 32.459101 -0.186351 -20.268909 10.186567 -2.002996 0.412983 -0.756413 -0.000000 0.000000 0.000000 0.000000 0.000000 0.000000 0.000000 
0.010860 16.264140 -1.450444 -117.569439 84.580727 -98.363603 -10.670773 1.075871 2.705211 -20.789060 -8.185649 -25.254521 -1.970511 0.664823 36.461700 2.894786 8.603764 -28.122614 -3.847600 -0.000000 -0.121900 9.969636 -1.992213 0.301079 1.065811 0.963804 -28.925828 -1.563670 -4.071646 69.021024 -2.570508 -14.164156 -2.646593 -1.400100 0.000000 -49.279900 1.550431 0.488836 -2.950530 0.355917 0.380994 -4.242415 -2.358069 0.368482 -3.934564 1.025807 -1.496307 -5.959856 1.482833 0.079943 0.529498 0.000000 0.000000 0.000000 7.777785 -9.700382 7.229405 77.913965 -19.665716 50.808376 -0.822008 -72.505309 -0.133115 -22.255178 75.068366 -17.740417 0.005388 -1.557217 -0.000000 0.000000 0.000000 0.000000 0.000000 0.000000 0.000000 -14.516363 3.893061 -4.372852 -3.457667 73.296975 -72.348840 -3.509850 32.331146 -0.202678 -22.702644 9.661600 -2.137874 0.476056 -0.739354 -0.000000 0.000000 0.000000 0.000000 0.000000 0.000000 0.000000 
0.252955 16.375106 -1.540011 -119.750807 83.922117 -100.442350 -10.906030 1.124117 2.724450 -19.997591 -7.972759 -23.438192 -1.891916 0.516853 34.307734 2.675196 8.352241 -26.124691 -3.376600 0.000000 -1.315200 9.705740 -1.877034 0.501829 1.791281 1.903881 -30.056563 -1.446845 -3.954725 67.641886 -2.592327 -14.191190 -2.675340 -1.435000 0.000000 -49.776400 2.166502 0.399174 -3.103741 0.496124 0.239961 -4.193055 -2.312172 0.230880 -3.627406 1.284744 -2.037518 -5.978854 1.559885 0.086148 0.517384 0.000000 0.000000 0.000000 7.740965 -9.791329 7.057137 77.077640 -19.922884 50.637241 -0.766610 -73.469391 -0.096400 -42.381740 75.034746 -34.040396 0.156876 -1.548619 -0.000000 0.000000 0.000000 0.000000 0.000000 0.000000 0.000000 -14.446078 3.068981 -3.956313 -5.990690 72.897167 -72.020265 -3.356144 32.054163 -0.212394 -24.587336 8.990828 -2.164434 0.523787 -0.713342 -0.000000 0.000000 0.000000 0.000000 0.000000 0.000000 0.000000 
0.497233 16.490023 -1.631417 -121.995713 83.243158 -102.546672 -11.137230 1.198730 2.757044 -19.203168 -7.750166 -21.720729 -1.796608 0.391664 32.183486 2.432711 8.041567 -23.822320 -2.850700 -0.000000 -3.256399 9.445353 -1.765323 0.704830 2.476871 2.744877 -31.159400 -1.311620 -3.827244 65.993615 -2.611766 -14.185740 -2.666715 -1.480699 0.000000 -50.365500 2.771311 0.298735 -3.285718 0.639833 0.087286 -4.141829 -2.250439 0.079266 -3.275728 1.556704 -2.647387 -6.056879 1.626854 0.092848 0.487503 0.000000 0.000000 0.000000 7.758159 -9.745251 6.884665 76.434582 -20.485754 50.622021 -0.733896 -74.167013 -0.065298 -57.728615 73.314338 -45.545444 0.296592 -1.526470 0.000000 0.000000 0.000000 0.000000 0.000000 0.000000 0.000000 -14.289058 2.144598 -3.447264 -9.266272 72.420443 -71.720180 -3.134955 31.702061 -0.215736 -25.832410 8.252213 -2.096397 0.555001 -0.682724 -0.000000 0.000000 0.000000 0.000000 0.000000 0.000000 0.000000 
0.743697 16.608262 -1.724131 -124.322356 82.544327 -104.699372 -11.364499 1.301412 2.795264 -18.409119 -7.495420 -20.100524 -1.687935 0.291955 30.080596 2.164763 7.641431 -21.175076 -2.271499 -0.000000 -6.203100 9.189858 -1.660464 0.906115 3.118092 3.482013 -32.212000 -1.157441 -3.689965 64.055108 -2.625301 -14.129365 -2.604209 -1.539400 -0.000000 -50.969600 3.364766 0.190325 -3.483476 0.783021 -0.073998 -4.096708 -2.189222 -0.082452 -2.926729 1.847374 -3.306293 -6.166116 1.682862 0.099417 0.448462 0.000000 0.000000 0.000000 7.795557 -9.614810 6.727053 75.983109 -21.319594 50.730006 -0.720065 -74.583024 -0.037862 -66.748341 70.773353 -51.038236 0.418857 -1.492556 -0.000000 0.000000 0.000000 0.000000 0.000000 0.000000 0.000000 -14.056610 1.163051 -2.929158 -12.718910 71.838864 -70.954893 -2.877991 31.365833 -0.213141 -26.387987 7.541702 -1.964475 0.569920 -0.651295 -0.000000 0.000000 0.000000 0.000000 0.000000 0.000000 0.000000 
0.992337 16.729030 -1.817719 -126.722449 81.823009 -106.900196 -11.587917 1.432053 2.833484 -17.616214 -7.193557 -18.569329 -1.568620 0.219389 27.985250 1.874974 7.138200 -18.157171 -1.656900 -0.000000 -10.288300 8.940252 -1.567213 1.103764 3.716444 4.116903 -33.187643 -0.983725 -3.543110 61.806102 -2.628804 -14.004118 -2.464372 -1.614300 0.000000 -51.511000 3.946296 0.075459 -3.688316 0.924245 -0.241971 -4.060920 -2.134041 -0.251759 -2.602884 2.158222 -4.000383 -6.288903 1.728547 0.105549 0.405658 0.000000 0.000000 0.000000 7.821037 -9.436428 6.594409 75.731302 -22.359908 50.919410 -0.722798 -74.732102 -0.013824 -71.001944 68.167264 -52.382220 0.519077 -1.455437 -0.000000 0.000000 0.000000 0.000000 0.000000 0.000000 0.000000 -13.761444 0.160479 -2.449243 -16.010796 71.138241 -69.480712 -2.599032 31.141203 -0.205129 -26.253198 6.962373 -1.808664 0.569333 -0.621985 -0.000000 0.000000 0.000000 0.000000 0.000000 0.000000 0.000000 
1.243124 16.851282 -1.911729 -129.173039 81.075155 -109.135318 -11.807191 1.588574 2.868251 -16.824955 -6.840002 -17.117461 -1.440836 0.174536 25.886607 1.574257 6.537880 -14.769141 -1.039900 -0.000000 -15.491999 8.697218 -1.490914 1.298061 4.276651 4.657921 -34.060224 -0.790138 -3.386331 59.231531 -2.617982 -13.795916 -2.218052 -1.709500 -0.000000 -51.958200 4.513697 -0.046007 -3.895875 1.063280 -0.416250 -4.035421 -2.083640 -0.427964 -2.312829 2.487054 -4.721853 -6.413550 1.765261 0.111104 0.362568 0.000000 0.000000 0.000000 7.808046 -9.252366 6.484580 75.640879 -23.553619 51.169169 -0.744242 -74.602626 0.004895 -72.140850 66.033059 -51.507010 0.591478 -1.424719 0.000000 0.000000 0.000000 0.000000 0.000000 0.000000 0.000000 -13.414165 -0.838850 -2.020966 -19.002642 70.318789 -67.273815 -2.303802 31.111727 -0.192460 -25.485796 6.599916 -1.664351 0.554597 -0.596723 -0.000000 0.000000 0.000000 0.000000 0.000000 0.000000 0.000000 
1.495954 16.973572 -2.005804 -131.643290 80.297765 -111.381506 -12.021021 1.765789 2.897527 -16.039854 -6.441841 -15.737138 -1.308567 0.155933 23.791524 1.280847 5.860544 -11.083847 -0.468200 -0.000000 -21.313300 8.460790 -1.436691 1.490870 4.803415 5.118085 -34.809642 -0.576228 -3.218952 56.328480 -2.587969 -13.491356 -1.844986 -1.825900 -0.000000 -52.252400 5.063341 -0.174552 -4.104250 1.200443 -0.596687 -4.019455 -2.032519 -0.610899 -2.054980 2.827076 -5.470184 -6.536281 1.795831 0.116217 0.320283 0.000000 0.000000 0.000000 7.740700 -9.082851 6.393393 75.681719 -24.848384 51.455613 -0.784715 -74.202313 0.016949 -71.060727 64.604417 -49.457200 0.633375 -1.406716 0.000000 0.000000 0.000000 0.000000 0.000000 0.000000 0.000000 -13.030423 -1.828458 -1.641603 -21.672074 69.396080 -64.457763 -1.998354 31.338645 -0.176198 -24.198585 6.501608 -1.551924 0.527864 -0.576380 -0.000000 0.000000 0.000000 0.000000 0.000000 0.000000 0.000000 
1.750808 17.094107 -2.099450 -134.103530 79.491610 -113.613274 -12.226777 1.956723 2.920434 -15.270847 -6.014451 -14.428604 -1.176544 0.160517 21.730291 1.014866 5.137606 -7.222615 0.011700 0.000000 -27.041900 8.231225 -1.408191 1.686226 5.297788 5.515052 -35.426338 -0.341912 -3.039654 53.108004 -2.534356 -13.083450 -1.328867 -1.961900 0.000000 -52.415400 5.589095 -0.310040 -4.314629 1.335628 -0.782400 -4.012016 -1.974082 -0.799768 -1.824309 3.169324 -6.250492 -6.657389 1.823762 0.121156 0.278675 0.000000 0.000000 0.000000 7.616541 -8.937673 6.315405 75.811707 -26.214918 51.764645 -0.843875 -73.533128 0.021688 -68.198706 63.928198 -46.695291 0.643830 -1.404062 0.000000 0.000000 0.000000 0.000000 0.000000 0.000000 0.000000 -12.627602 -2.815073 -1.301464 -24.051434 68.393500 -61.220145 -1.691912 31.854162 -0.157716 -22.546406 6.661504 -1.472873 0.492215 -0.560718 -0.000000 0.000000 0.000000 0.000000 0.000000 0.000000 0.000000 
